<svg width="39" height="34" viewBox="0 0 39 34" fill="none" xmlns="http://www.w3.org/2000/svg">
<path d="M8.71533 3.62061H4.88721V26.9312H8.71533V30.5371H0.443848V0.0146484H8.71533V3.62061ZM19.0376 21.0522H22.2847C24.381 21.0522 25.9761 21.508 27.0698 22.4194C28.175 23.3195 28.7275 24.6354 28.7275 26.3672C28.7275 28.6003 27.7933 30.332 25.9248 31.5625C24.0677 32.793 21.396 33.4082 17.9097 33.4082C15.255 33.4082 13.2214 32.9468 11.8086 32.0239C10.3958 31.1011 9.68945 29.7965 9.68945 28.1104C9.68945 26.9596 10.0483 25.9969 10.7661 25.2222C11.4839 24.4474 12.5378 23.8949 13.9277 23.5645C13.4036 23.3594 12.9365 22.9891 12.5264 22.4536C12.1276 21.9181 11.9282 21.3371 11.9282 20.7104C11.9282 20.0724 12.1219 19.5142 12.5093 19.0356C12.908 18.5457 13.5347 18.0501 14.3892 17.5488C13.3752 17.1045 12.5776 16.4038 11.9966 15.4468C11.4155 14.4897 11.125 13.3675 11.125 12.0801C11.125 9.99512 11.8029 8.38298 13.1587 7.24365C14.5145 6.10433 16.4513 5.53467 18.9692 5.53467C19.5047 5.53467 20.137 5.58594 20.8662 5.68848C21.6068 5.77962 22.0796 5.84798 22.2847 5.89355H28.9497V8.54248L25.959 9.31152C26.5059 10.1888 26.7793 11.1458 26.7793 12.1826C26.7793 14.2334 26.0672 15.8341 24.6431 16.9849C23.2189 18.1242 21.2308 18.6938 18.6787 18.6938L17.7388 18.6426L16.9697 18.5571C16.4342 18.9673 16.1665 19.423 16.1665 19.9243C16.1665 20.6763 17.1235 21.0522 19.0376 21.0522ZM18.9692 8.69629C17.0552 8.69629 16.0981 9.84701 16.0981 12.1484C16.0981 13.208 16.3374 14.034 16.8159 14.6265C17.3058 15.2189 18.0236 15.5151 18.9692 15.5151C19.9263 15.5151 20.6383 15.2246 21.1055 14.6436C21.5726 14.0511 21.8062 13.2194 21.8062 12.1484C21.8062 9.84701 20.8605 8.69629 18.9692 8.69629ZM20.2681 25.2393H17.5679C16.6108 25.2393 15.8076 25.4614 15.1582 25.9058C14.5202 26.3729 14.2012 26.9653 14.2012 27.6831C14.2012 28.4123 14.5487 28.9819 15.2437 29.3921C15.9386 29.8022 16.9014 30.0073 18.1318 30.0073C20.0003 30.0073 21.4644 29.751 22.5239 29.2383C23.5835 28.7256 24.1133 28.0249 24.1133 27.1362C24.1133 26.4412 23.8057 25.9513 23.1904 25.6665C22.5866 25.3817 21.6125 25.2393 20.2681 25.2393ZM38.52 30.5371H30.2485V26.9312H34.0596V3.62061H30.2485V0.0146484H38.52V30.5371Z" fill="#0D0D0D"/>
</svg>
