<svg width="35" height="18" viewBox="0 0 35 18" fill="none" xmlns="http://www.w3.org/2000/svg">
<path d="M9.84375 0.238525C9.16443 0.238525 8.5022 0.302105 7.86133 0.418044C7.54089 0.474143 7.21191 0.545203 6.9043 0.627482C4.14856 1.39043 1.90552 3.1931 0.786133 5.50439C0.662232 5.76245 0.538331 6.01303 0.444336 6.28231C0.149536 7.09762 0 7.95407 0 8.8554C0 9.74551 0.158081 10.5907 0.444336 11.3986C0.448608 11.4061 0.440064 11.421 0.444336 11.4285C1.31592 13.8408 3.37524 15.8043 6.01562 16.7841C6.31042 16.8926 6.59668 17.001 6.9043 17.0833C7.83569 17.3414 8.81409 17.4723 9.84375 17.4723H25.1562C30.578 17.4723 35 13.6014 35 8.8554C35 4.10939 30.578 0.238525 25.1562 0.238525H9.84375ZM9.84375 2.15339C14.0863 2.15339 17.5 5.14162 17.5 8.8554C17.5 12.5692 14.0863 15.5574 9.84375 15.5574C5.6012 15.5574 2.1875 12.5692 2.1875 8.8554C2.1875 8.62352 2.19605 8.39164 2.22168 8.16725C2.61047 4.77884 5.86609 2.15339 9.84375 2.15339ZM15.9961 2.15339H25.1562C29.3988 2.15339 32.8125 5.14162 32.8125 8.8554C32.8125 12.5692 29.3988 15.5574 25.1562 15.5574H15.9961C18.2391 13.9754 19.6875 11.5631 19.6875 8.8554C19.6875 6.14767 18.2391 3.73539 15.9961 2.15339Z" fill="#0D0D0D"/>
</svg>
