<svg width="15" height="15" viewBox="0 0 15 15" fill="none" xmlns="http://www.w3.org/2000/svg">
<path d="M13.6645 0.604622C13.4756 0.614239 13.2976 0.674345 13.1394 0.741664H13.1372C12.9768 0.811388 12.2144 1.16241 11.0564 1.69375C9.89843 2.2275 8.3955 2.91993 6.90356 3.60754C3.92407 4.98038 0.995111 6.33157 0.995111 6.33157L1.03027 6.31715C1.03027 6.31715 0.828119 6.38928 0.617181 6.54796C0.509516 6.62489 0.390863 6.73068 0.287592 6.89658C0.18432 7.06247 0.100824 7.31732 0.131586 7.57939C0.182123 8.02417 0.445795 8.29105 0.63476 8.43771C0.825922 8.58677 1.00829 8.65649 1.00829 8.65649H1.01269L3.75927 9.66869C3.88232 10.1015 4.59643 12.6692 4.76782 13.2607C4.86889 13.6141 4.96777 13.8353 5.09081 14.0036C5.15014 14.0901 5.22045 14.1623 5.30395 14.22C5.33691 14.2416 5.37206 14.2584 5.40722 14.2729C5.41821 14.2801 5.42919 14.2825 5.44238 14.2849L5.41381 14.2777C5.4226 14.2801 5.42919 14.2873 5.43578 14.2897C5.45776 14.2969 5.47314 14.2993 5.5017 14.3041C5.93676 14.4484 6.28613 14.1526 6.28613 14.1526L6.3059 14.1358L7.92748 12.5201L10.6455 14.8018L10.707 14.8306C11.2739 15.1023 11.8474 14.9509 12.1506 14.684C12.456 14.4147 12.5747 14.0709 12.5747 14.0709L12.5945 14.0156L14.6951 2.24192C14.7544 1.95101 14.7698 1.67933 14.7039 1.41486C14.6379 1.15039 14.4687 0.90275 14.2644 0.770515C14.0579 0.635877 13.8535 0.595004 13.6645 0.604622ZM13.6074 1.86686C13.6052 1.90533 13.6118 1.90052 13.5964 1.97505V1.98226L11.5156 13.6333C11.5068 13.6501 11.4914 13.6862 11.4497 13.7223C11.4058 13.7607 11.3706 13.7848 11.1882 13.7054L7.86376 10.9165L5.85546 12.9193L6.27734 9.97163C6.27734 9.97163 11.4849 4.66061 11.709 4.43221C11.9331 4.2038 11.8584 4.15572 11.8584 4.15572C11.8738 3.87682 11.52 4.07397 11.52 4.07397L4.67114 8.7166L4.66894 8.70458L1.38622 7.49524V7.49283C1.38403 7.49283 1.37963 7.49043 1.37744 7.49043C1.37963 7.49043 1.39501 7.48322 1.39501 7.48322L1.41259 7.4736L1.43017 7.46639C1.43017 7.46639 4.36132 6.11519 7.34081 4.74236C8.83276 4.05474 10.3357 3.36231 11.4914 2.82856C12.6472 2.29722 13.5019 1.90773 13.5503 1.88609C13.5964 1.86686 13.5745 1.86686 13.6074 1.86686Z" fill="#0D0D0D"/>
</svg>
