<svg width="24" height="22" viewBox="0 0 24 22" fill="none" xmlns="http://www.w3.org/2000/svg">
<path fill-rule="evenodd" clip-rule="evenodd" d="M12 0C5.37109 0 0 5.04788 0 11.2779C0 16.2597 3.4375 20.4889 8.20703 21.9794C8.80859 22.0822 9.02734 21.7371 9.02734 21.436C9.02734 21.168 9.01562 20.4595 9.01172 19.5197C5.67188 20.1988 4.96875 18.0071 4.96875 18.0071C4.42188 16.7039 3.63672 16.3551 3.63672 16.3551C2.54688 15.6576 3.71875 15.6723 3.71875 15.6723C4.92188 15.753 5.55469 16.8324 5.55469 16.8324C6.625 18.5578 8.36328 18.0585 9.04688 17.7722C9.15625 17.0416 9.46875 16.546 9.80859 16.2633C7.14453 15.9807 4.34375 15.0115 4.34375 10.6905C4.34375 9.45697 4.8125 8.45106 5.57812 7.66176C5.45703 7.37908 5.04297 6.23 5.69531 4.67709C5.69531 4.67709 6.70312 4.37605 8.99609 5.83351C9.95312 5.58387 10.9805 5.45905 12 5.45538C13.0195 5.45905 14.0469 5.58387 15.0039 5.83351C17.2969 4.37605 18.3008 4.67709 18.3008 4.67709C18.957 6.23 18.5469 7.37908 18.4219 7.66176C19.1914 8.45106 19.6523 9.45697 19.6523 10.6905C19.6523 15.0225 16.8477 15.9733 14.1758 16.256C14.6055 16.6011 14.9883 17.2913 14.9883 18.3412C14.9883 19.8501 14.9766 21.0652 14.9766 21.436C14.9766 21.7371 15.1914 22.0895 15.8008 21.9794C20.5664 20.4852 24 16.2597 24 11.2779C24 5.04788 18.6289 0 12 0Z" fill="white"/>
</svg>
