<svg width="24" height="21" viewBox="0 0 24 21" fill="none" xmlns="http://www.w3.org/2000/svg">
<path fill-rule="evenodd" clip-rule="evenodd" d="M12 0C5.37109 0 0 4.82044 0 10.7697C0 15.5271 3.4375 19.5657 8.20703 20.9891C8.80859 21.0872 9.02734 20.7577 9.02734 20.4702C9.02734 20.2143 9.01562 19.5377 9.01172 18.6402C5.67188 19.2888 4.96875 17.1958 4.96875 17.1958C4.42188 15.9513 3.63672 15.6182 3.63672 15.6182C2.54688 14.9521 3.71875 14.9661 3.71875 14.9661C4.92188 15.0433 5.55469 16.074 5.55469 16.074C6.625 17.7217 8.36328 17.2449 9.04688 16.9714C9.15625 16.2738 9.46875 15.8005 9.80859 15.5306C7.14453 15.2606 4.34375 14.3351 4.34375 10.2088C4.34375 9.03087 4.8125 8.07029 5.57812 7.31655C5.45703 7.0466 5.04297 5.9493 5.69531 4.46636C5.69531 4.46636 6.70312 4.17888 8.99609 5.57067C9.95312 5.33228 10.9805 5.21308 12 5.20958C13.0195 5.21308 14.0469 5.33228 15.0039 5.57067C17.2969 4.17888 18.3008 4.46636 18.3008 4.46636C18.957 5.9493 18.5469 7.0466 18.4219 7.31655C19.1914 8.07029 19.6523 9.03087 19.6523 10.2088C19.6523 14.3456 16.8477 15.2536 14.1758 15.5236C14.6055 15.8531 14.9883 16.5122 14.9883 17.5148C14.9883 18.9557 14.9766 20.1161 14.9766 20.4702C14.9766 20.7577 15.1914 21.0942 15.8008 20.9891C20.5664 19.5622 24 15.5271 24 10.7697C24 4.82044 18.6289 0 12 0Z" fill="#0D0D0D"/>
</svg>
