<svg width="36" height="18" viewBox="0 0 36 18" fill="none" xmlns="http://www.w3.org/2000/svg">
<path d="M25.2022 17.9546C25.8815 17.9533 26.5436 17.8884 27.1842 17.7713C27.5046 17.7146 27.8334 17.6429 28.1409 17.56C30.8951 16.7917 33.1347 14.9848 34.2496 12.6713C34.373 12.413 34.4965 12.1622 34.5899 11.8928C34.8832 11.0769 35.0311 10.2201 35.0293 9.31881C35.0276 8.4287 34.8679 7.58377 34.5801 6.77649C34.5758 6.76902 34.5843 6.75405 34.58 6.74657C33.7038 4.33598 31.6407 2.37646 28.9985 1.40167C28.7035 1.29378 28.417 1.18587 28.1092 1.10419C27.1773 0.847921 26.1987 0.718904 25.169 0.720884L9.85655 0.750336C4.43481 0.760764 0.0202613 4.64012 0.0293896 9.38613C0.038518 14.1321 4.46795 17.9945 9.88969 17.9841L25.2022 17.9546ZM25.1985 16.0397C20.9559 16.0479 17.5365 13.0662 17.5294 9.35247C17.5222 5.63869 20.9302 2.6439 25.1727 2.63574C29.4152 2.62758 32.8347 5.60924 32.8418 9.32302C32.8423 9.55489 32.8342 9.78679 32.809 10.0112C32.4267 13.4004 29.1761 16.0321 25.1985 16.0397ZM19.0462 16.0516L9.88601 16.0692C5.64347 16.0774 2.22403 13.0957 2.21689 9.38192C2.20974 5.66814 5.61769 2.67335 9.86023 2.66519L19.0204 2.64758C16.7804 4.23389 15.3367 6.64895 15.3419 9.35668C15.3471 12.0644 16.8001 14.4739 19.0462 16.0516Z" fill="white"/>
</svg>
