<svg width="23" height="17" viewBox="0 0 23 17" fill="none" xmlns="http://www.w3.org/2000/svg">
<path d="M17.9994 2.0992C19.0459 1.73695 19.7567 1.49092 20.0253 1.40042H20.0256L20.1002 1.37652C20.3157 1.30736 20.53 1.25521 20.7446 1.24698C20.9543 1.23893 21.1726 1.27277 21.3935 1.38138L21.3948 1.38201C21.5881 1.47631 21.7389 1.65359 21.7904 1.80931C21.8461 1.97781 21.843 2.17355 21.7694 2.44566L21.7674 2.45333L21.7655 2.46107L18.6657 15.5608L18.6591 15.5748L18.659 15.5748L18.6581 15.5767C18.658 15.5771 18.6578 15.5774 18.6575 15.5779C18.6554 15.582 18.6508 15.5907 18.6435 15.6034C18.6288 15.6288 18.6036 15.6692 18.5668 15.7181C18.4928 15.8165 18.3753 15.9448 18.2058 16.0575C17.8936 16.2645 17.2106 16.4193 16.5138 16.1675L16.5106 16.1663L16.4725 16.1529L12.4934 13.6344L12.2017 13.4498L11.9257 13.6571L9.53815 15.4508L9.52915 15.4565L9.52474 15.4591C9.51765 15.4631 9.50419 15.4704 9.48507 15.4797C9.44649 15.4984 9.38713 15.524 9.31253 15.5462C9.16178 15.591 8.9655 15.6175 8.75356 15.5645L8.72473 15.5573L8.69525 15.5536L8.6853 15.5523L8.6783 15.5488L8.6401 15.537C8.63327 15.5349 8.62689 15.5329 8.62092 15.5309L9.45687 14.9024L12.1562 12.8728L16.7895 15.8035L16.842 15.8366L16.9009 15.856C17.0449 15.9032 17.1927 15.9422 17.3365 15.9396C17.5283 15.936 17.6526 15.861 17.717 15.8187C17.7899 15.7712 17.8462 15.7192 17.8899 15.6685C17.928 15.6244 17.9628 15.5706 17.9528 15.585L18.0066 15.5074L18.0283 15.4156L21.111 2.40141L21.1245 2.34457V2.33797C21.1314 2.30486 21.137 2.26904 21.1392 2.23072C21.1401 2.21434 21.1402 2.20057 21.1402 2.19047L21.1401 2.1846L21.1801 1.65726H20.6408L20.6206 1.65733C20.614 1.6574 20.5995 1.65759 20.5823 1.65877C20.5636 1.66005 20.5349 1.66291 20.5008 1.67058C20.4646 1.67873 20.4355 1.68931 20.4151 1.69772C20.4117 1.69912 20.4082 1.70064 20.4049 1.70208L20.3962 1.70499C20.3223 1.72996 19.0539 2.16576 17.3422 2.75905L17.3416 2.75928C15.9075 3.25862 14.1126 3.8823 12.2685 4.5231C11.911 4.64731 11.5517 4.77216 11.1928 4.89687C8.98575 5.6636 6.79662 6.42428 5.15925 6.99328L3.18373 7.67982L2.63146 7.87176L2.48609 7.92228L2.44884 7.93523L2.44439 7.93678L2.42658 7.94229L2.40478 7.94903L2.38369 7.95773L2.35765 7.96847L2.52227 8.36756V8.43875V8.44144H2.03529V8.44412V8.82417L2.40148 8.92588L6.98183 10.1981L7.06518 10.542L7.62938 10.2536L15.311 6.32759L13.3755 7.81579L10.6872 9.88295L9.80875 10.5585L9.56332 10.7472L9.49874 10.7968L9.48219 10.8096L9.478 10.8128L9.47695 10.8136L9.47669 10.8138C9.47663 10.8138 9.4766 10.8139 9.78139 11.2102L9.4766 10.8139L9.32567 10.9299L9.29016 11.117L8.66516 14.4095L8.46822 15.4469C8.44072 15.4254 8.41605 15.4023 8.39354 15.3776L8.38813 15.3716L8.38252 15.3658C8.26495 15.2446 8.14884 15.066 8.01256 14.7067L8.01178 14.7047C7.8522 14.2895 7.37839 13.0113 7.00148 11.9945C6.77782 11.3911 6.58828 10.8798 6.51876 10.6954L6.42923 10.458L6.18478 10.3901L2.11577 9.25949L2.07556 9.24832C2.05339 9.24077 2.02314 9.22997 1.9871 9.21587C1.90094 9.18215 1.78798 9.13201 1.67542 9.06583L1.67454 9.06531C1.42339 8.91835 1.21026 8.72423 1.17099 8.46361L1.17062 8.4612C1.1532 8.34932 1.20212 8.20414 1.29325 8.09376L0.909127 7.77661L1.29325 8.09376C1.39141 7.97487 1.50785 7.89369 1.63313 7.82619L1.63318 7.8263L1.64265 7.82093C1.76913 7.74919 1.89619 7.69539 1.99317 7.65938C2.03963 7.64213 2.07768 7.62953 2.10346 7.62142L2.10364 7.62198L2.15573 7.60587L2.15528 7.60434L2.16993 7.59924L2.31518 7.54872L2.86707 7.35679L4.84142 6.67027C6.47795 6.10127 8.66622 5.34061 10.8732 4.5739L10.8732 4.57389C11.9159 4.21158 12.9622 3.84806 13.9568 3.5025C15.0704 3.1156 16.1191 2.75122 17.0252 2.43631C17.3756 2.31511 17.7011 2.20243 17.9994 2.0992ZM8.63958 15.5387C8.65088 15.5417 8.66461 15.5459 8.67962 15.5516L8.67764 15.5513C8.6662 15.5472 8.65343 15.5431 8.63943 15.5392C8.63884 15.539 8.63824 15.5388 8.63764 15.5387L8.63771 15.5382C8.63832 15.5384 8.63895 15.5385 8.63958 15.5387ZM2.52227 8.29369V8.35703L2.38167 7.95932L2.38405 7.9586L2.38793 7.95743C2.39041 7.95671 2.39854 7.95435 2.40961 7.95174C2.41352 7.95082 2.41998 7.94935 2.42826 7.94774C2.43142 7.94713 2.43484 7.9465 2.43848 7.94587L2.52227 8.18704V8.2516V8.29369ZM2.52227 8.15937L2.45541 7.94326C2.47072 7.94118 2.49438 7.93875 2.52227 7.93875V8.15937ZM21.14 2.17507C21.14 2.17507 21.14 2.17512 21.14 2.17522L21.14 2.17512V2.17507ZM2.1389 7.61075C2.13926 7.61065 2.13936 7.61062 2.13919 7.61067L2.1389 7.61075Z" fill="white" stroke="white"/>
</svg>
